<svg xmlns="http://www.w3.org/2000/svg" width="1095" height="314" fill="none" xmlns:v="https://vecta.io/nano"><g clip-path="url(#A)"><path d="M0 0H1095V314H0V0Z" fill="#1a558d"/><path d="M339.432 137.031h12.238c2.776 0 5.12.423 7.033 1.27 1.93.846 3.394 2.099 4.393 3.758 1.015 1.642 1.523 3.664 1.523 6.068 0 1.693-.347 3.241-1.041 4.646-.677 1.388-1.659 2.573-2.945 3.555-1.27.965-2.793 1.684-4.571 2.158l-1.371.534h-11.502l-.05-3.987h8.683c1.761 0 3.225-.304 4.393-.914 1.168-.626 2.048-1.464 2.64-2.514s.889-2.209.889-3.478c0-1.422-.279-2.666-.838-3.732s-1.439-1.888-2.64-2.463c-1.185-.593-2.717-.889-4.596-.889h-7.338V174h-4.9v-36.969zM361.039 174l-8.988-16.758 5.103-.025 9.116 16.478V174h-5.231zm21.125.508c-1.913 0-3.648-.322-5.205-.965-1.506-.636-2.864-1.579-3.986-2.768-1.101-1.185-1.947-2.589-2.539-4.214s-.889-3.403-.889-5.332v-1.067c0-2.234.33-4.223.99-5.967.66-1.76 1.557-3.25 2.692-4.468s2.42-2.142 3.859-2.768a11.09 11.09 0 0 1 4.469-.939c1.963 0 3.656.338 5.078 1.015 1.439.677 2.615 1.625 3.529 2.844.914 1.202 1.591 2.624 2.031 4.266.44 1.625.661 3.402.661 5.332v2.107h-20.516v-3.834h15.818v-.355c-.067-1.217-.324-2.417-.761-3.555a6.4 6.4 0 0 0-2.032-2.844c-.931-.745-2.2-1.117-3.808-1.117-1.067 0-2.048.228-2.946.685-.897.441-1.667 1.101-2.31 1.981s-1.143 1.955-1.498 3.225-.533 2.733-.533 4.392v1.067c0 1.303.177 2.53.533 3.681.347 1.087.889 2.103 1.599 2.996.699.854 1.574 1.547 2.565 2.032 1.015.49 2.167.736 3.453.736 1.659 0 3.064-.339 4.215-1.016s2.158-1.582 3.021-2.717l2.844 2.26c-.592.897-1.346 1.752-2.26 2.565s-2.039 1.472-3.377 1.98c-1.32.508-2.886.762-4.697.762zm32.17-7.795c0-.677-.152-1.303-.457-1.879-.288-.592-.889-1.126-1.803-1.6-.897-.491-2.251-.914-4.062-1.269-1.404-.289-2.786-.67-4.139-1.143-1.219-.44-2.26-.973-3.123-1.599-.846-.627-1.498-1.363-1.955-2.209s-.686-1.837-.686-2.971c0-1.083.237-2.107.711-3.072.507-.984 1.206-1.857 2.057-2.565.897-.745 1.972-1.329 3.225-1.752s2.649-.634 4.189-.634c2.201 0 4.079.389 5.637 1.168s2.75 1.819 3.58 3.123c.829 1.286 1.244 2.716 1.244 4.291h-4.697c0-.762-.229-1.498-.686-2.209-.44-.728-1.092-1.329-1.955-1.803-.846-.474-1.887-.711-3.123-.711-1.303 0-2.361.203-3.174.609-.795.39-1.379.889-1.752 1.498a3.78 3.78 0 0 0-.533 1.93c0 .508.085.965.254 1.371.186.389.508.753.965 1.092.457.322 1.1.626 1.929.914s1.888.575 3.174.863c2.252.508 4.105 1.117 5.561 1.828s2.539 1.583 3.25 2.616 1.066 2.285 1.066 3.757c0 1.202-.254 2.303-.761 3.301-.491.999-1.211 1.862-2.159 2.59-.931.711-2.048 1.27-3.351 1.676-1.287.389-2.734.584-4.342.584-2.421 0-4.469-.432-6.145-1.295s-2.945-1.981-3.808-3.352-1.295-2.818-1.295-4.341h4.723c.067 1.286.44 2.31 1.117 3.072.674.743 1.532 1.295 2.488 1.599a9.81 9.81 0 0 0 2.92.457c1.286 0 2.361-.169 3.225-.507.88-.339 1.548-.804 2.005-1.397.453-.579.695-1.296.686-2.031zm15.564-14.904v32.753h-4.722v-38.035h4.316l.406 5.282zm18.51 8.226v.533c0 1.998-.237 3.851-.711 5.561-.474 1.693-1.168 3.165-2.082 4.418-.863 1.222-2.002 2.223-3.326 2.92s-2.835 1.041-4.545 1.041c-1.743 0-3.284-.288-4.621-.863-1.315-.56-2.481-1.421-3.402-2.514-.931-1.1-1.676-2.421-2.235-3.961-.541-1.54-.914-3.275-1.117-5.205v-2.844c.203-2.031.584-3.851 1.143-5.459s1.295-2.979 2.209-4.113a9.06 9.06 0 0 1 3.377-2.615c1.32-.61 2.843-.914 4.57-.914s3.258.338 4.596 1.015c1.339.661 2.498 1.637 3.377 2.844.914 1.236 1.599 2.717 2.056 4.443.474 1.71.711 3.614.711 5.713zm-4.722.533v-.533c0-1.371-.144-2.657-.432-3.859-.288-1.219-.736-2.285-1.346-3.199a6.41 6.41 0 0 0-2.285-2.184c-.931-.542-2.04-.813-3.326-.813-1.185 0-2.218.204-3.098.61a6.7 6.7 0 0 0-2.209 1.65 8.77 8.77 0 0 0-1.498 2.336 13.42 13.42 0 0 0-.838 2.692v6.576c.333 1.172.811 2.297 1.422 3.351a7.37 7.37 0 0 0 2.438 2.514c1.015.626 2.293.939 3.834.939 1.269 0 2.361-.262 3.275-.787a6.62 6.62 0 0 0 2.285-2.209c.61-.931 1.058-1.997 1.346-3.199.288-1.219.432-2.514.432-3.885zm9.47 0v-.584c0-1.98.288-3.817.864-5.509.575-1.71 1.404-3.191 2.488-4.444a11.1 11.1 0 0 1 3.935-2.945c1.541-.711 3.267-1.066 5.18-1.066 1.93 0 3.665.355 5.205 1.066 1.525.67 2.88 1.677 3.961 2.945 1.1 1.253 1.938 2.734 2.514 4.444.575 1.692.863 3.529.863 5.509v.584c0 1.981-.288 3.817-.863 5.51s-1.414 3.174-2.514 4.443a11.51 11.51 0 0 1-3.935 2.946c-1.524.694-3.25 1.041-5.18 1.041s-3.665-.347-5.205-1.041c-1.514-.691-2.864-1.695-3.961-2.946-1.084-1.269-1.913-2.75-2.488-4.443s-.864-3.529-.864-5.51zm4.698-.584v.584c0 1.371.16 2.666.482 3.885.322 1.202.804 2.268 1.447 3.199a7.32 7.32 0 0 0 2.463 2.209c.982.525 2.124.787 3.428.787 1.286 0 2.412-.262 3.377-.787.975-.535 1.809-1.291 2.437-2.209.644-.931 1.126-1.997 1.448-3.199a14.48 14.48 0 0 0 .507-3.885v-.584c0-1.354-.169-2.632-.507-3.834-.322-1.218-.813-2.293-1.473-3.224-.622-.929-1.458-1.695-2.438-2.235-.964-.541-2.099-.812-3.402-.812-1.286 0-2.421.271-3.402.812a7.3 7.3 0 0 0-2.438 2.235c-.643.931-1.125 2.006-1.447 3.224-.328 1.251-.49 2.54-.482 3.834zm30.9-7.591V174h-4.697v-27.473h4.443l.254 5.866zm-1.117 6.83l-1.955-.077c.017-1.878.296-3.613.838-5.205.541-1.608 1.303-3.004 2.285-4.189a10.16 10.16 0 0 1 3.504-2.742c1.371-.66 2.886-.99 4.545-.99 1.354 0 2.572.186 3.656.558 1.052.336 2.003.93 2.767 1.727.779.795 1.371 1.828 1.778 3.097.406 1.253.609 2.785.609 4.596V174h-4.723v-18.053c0-1.439-.211-2.59-.634-3.453-.424-.88-1.041-1.515-1.854-1.904-.812-.406-1.811-.61-2.996-.61-1.168 0-2.234.246-3.199.737a7.64 7.64 0 0 0-2.463 2.031 10.23 10.23 0 0 0-1.6 2.971c-.377 1.13-.565 2.313-.558 3.504zm41.158 7.49c0-.677-.152-1.303-.457-1.879-.288-.592-.889-1.126-1.803-1.6-.897-.491-2.251-.914-4.062-1.269-1.404-.289-2.786-.67-4.139-1.143-1.219-.44-2.26-.973-3.123-1.599-.846-.627-1.498-1.363-1.955-2.209s-.686-1.837-.686-2.971c0-1.083.237-2.107.711-3.072.507-.984 1.206-1.857 2.057-2.565.897-.745 1.972-1.329 3.224-1.752s2.65-.634 4.19-.634c2.2 0 4.079.389 5.637 1.168s2.75 1.819 3.58 3.123c.829 1.286 1.244 2.716 1.244 4.291h-4.697c0-.762-.229-1.498-.686-2.209-.44-.728-1.092-1.329-1.955-1.803-.846-.474-1.887-.711-3.123-.711-1.303 0-2.361.203-3.174.609-.795.39-1.379.889-1.752 1.498a3.78 3.78 0 0 0-.533 1.93c0 .508.085.965.254 1.371.186.389.508.753.965 1.092.457.322 1.1.626 1.929.914s1.888.575 3.174.863c2.252.508 4.105 1.117 5.561 1.828s2.539 1.583 3.25 2.616 1.066 2.285 1.066 3.757c0 1.202-.254 2.303-.762 3.301-.49.999-1.21 1.862-2.158 2.59-.931.711-2.048 1.27-3.351 1.676-1.287.389-2.734.584-4.342.584-2.421 0-4.469-.432-6.145-1.295s-2.945-1.981-3.808-3.352-1.295-2.818-1.295-4.341h4.723c.067 1.286.44 2.31 1.117 3.072.674.743 1.532 1.295 2.488 1.599a9.81 9.81 0 0 0 2.92.457c1.286 0 2.361-.169 3.225-.507.88-.339 1.548-.804 2.005-1.397.453-.579.695-1.296.686-2.031zm15.971-20.186V174h-4.723v-27.473h4.723zm-5.078-7.287c0-.761.228-1.405.685-1.929.474-.525 1.168-.788 2.082-.788.897 0 1.583.263 2.057.788.491.524.736 1.168.736 1.929 0 .728-.245 1.354-.736 1.879-.474.508-1.16.762-2.057.762-.914 0-1.608-.254-2.082-.762-.457-.525-.685-1.151-.685-1.879zm20.972 30.52l7.516-23.233h4.799L563.098 174h-3.149l.711-4.24zm-6.271-23.233l7.744 23.36.533 4.113h-3.148l-9.954-27.473h4.825zm34.15 27.981c-1.913 0-3.648-.322-5.205-.965-1.506-.636-2.863-1.579-3.986-2.768-1.101-1.185-1.947-2.589-2.539-4.214s-.889-3.403-.889-5.332v-1.067c0-2.234.33-4.223.99-5.967.66-1.76 1.557-3.25 2.692-4.468s2.42-2.142 3.859-2.768a11.09 11.09 0 0 1 4.469-.939c1.963 0 3.656.338 5.078 1.015 1.439.677 2.615 1.625 3.529 2.844.914 1.202 1.591 2.624 2.031 4.266.44 1.625.661 3.402.661 5.332v2.107h-20.516v-3.834h15.818v-.355c-.067-1.217-.324-2.417-.761-3.555a6.4 6.4 0 0 0-2.032-2.844c-.931-.745-2.2-1.117-3.808-1.117-1.067 0-2.048.228-2.946.685-.897.441-1.667 1.101-2.31 1.981s-1.143 1.955-1.498 3.225-.533 2.733-.533 4.392v1.067c0 1.303.177 2.53.533 3.681.347 1.087.889 2.103 1.599 2.996.699.854 1.574 1.547 2.565 2.032 1.015.49 2.167.736 3.453.736 1.659 0 3.064-.339 4.215-1.016s2.158-1.582 3.021-2.717l2.844 2.26c-.592.897-1.346 1.752-2.26 2.565s-2.039 1.472-3.377 1.98c-1.32.508-2.886.762-4.697.762zm35.039-37.477V174h-4.9v-36.969h4.9zm12.873 14.955V174h-4.722v-27.473h4.468l.254 5.459zm-.965 7.237l-2.183-.077c.017-1.878.262-3.613.736-5.205.474-1.608 1.176-3.004 2.107-4.189.924-1.179 2.117-2.119 3.479-2.742 1.388-.66 2.996-.99 4.824-.99 1.287 0 2.472.186 3.555.558 1.058.341 2.023.923 2.818 1.701s1.414 1.778 1.854 2.996.66 2.692.66 4.418V174h-4.697v-18.078c0-1.439-.246-2.59-.737-3.453a4.2 4.2 0 0 0-2.031-1.879c-.88-.406-1.913-.61-3.098-.61-1.388 0-2.547.246-3.478.737-.909.471-1.679 1.171-2.234 2.031s-.965 1.854-1.219 2.971a16.57 16.57 0 0 0-.356 3.504zm17.799-2.59l-3.148.965a13.83 13.83 0 0 1 .736-4.342c.471-1.354 1.185-2.61 2.107-3.707a9.98 9.98 0 0 1 3.428-2.565c1.354-.643 2.903-.964 4.647-.964 1.472 0 2.776.194 3.91.584 1.151.389 2.116.99 2.894 1.802.796.796 1.397 1.82 1.803 3.073s.609 2.742.609 4.468V174h-4.722v-18.104c0-1.54-.246-2.733-.737-3.58a3.83 3.83 0 0 0-2.031-1.802c-.863-.356-1.896-.534-3.097-.534-1.033 0-1.947.178-2.743.534-.769.336-1.454.839-2.005 1.472-.546.617-.969 1.332-1.245 2.108a7.85 7.85 0 0 0-.406 2.539zm40.295 12.67V155.16c0-1.083-.22-2.023-.66-2.818-.423-.813-1.066-1.439-1.93-1.879s-1.929-.66-3.199-.66c-1.185 0-2.226.203-3.123.609-.88.406-1.574.94-2.082 1.6-.491.66-.736 1.371-.736 2.133h-4.698c0-.982.254-1.956.762-2.92s1.236-1.837 2.184-2.616c.964-.795 2.116-1.421 3.453-1.879 1.354-.473 2.86-.71 4.519-.71 1.998 0 3.758.338 5.282 1.015 1.54.677 2.742 1.701 3.605 3.072.88 1.355 1.32 3.056 1.32 5.104v12.797a20.11 20.11 0 0 0 .229 2.92c.169 1.032.415 1.921.736 2.666V174h-4.9c-.237-.542-.423-1.261-.559-2.158-.129-.84-.197-1.689-.203-2.539zm.813-11.959l.05 3.301h-4.748c-1.337 0-2.53.11-3.58.33-1.049.203-1.929.516-2.64.939s-1.253.956-1.625 1.6c-.373.626-.559 1.362-.559 2.209 0 .863.195 1.65.584 2.361s.973 1.278 1.752 1.701c.796.406 1.769.61 2.92.61 1.439 0 2.708-.305 3.808-.915s1.972-1.354 2.616-2.234c.66-.88 1.015-1.735 1.066-2.564l2.006 2.259c-.119.711-.44 1.498-.965 2.362s-1.227 1.692-2.107 2.488c-.864.779-1.896 1.43-3.098 1.955-1.185.508-2.522.762-4.012.762-1.862 0-3.495-.364-4.9-1.092-1.388-.728-2.471-1.701-3.25-2.92-.762-1.236-1.143-2.615-1.143-4.139 0-1.472.288-2.767.864-3.884a7.5 7.5 0 0 1 2.488-2.819c1.083-.761 2.387-1.337 3.91-1.726s3.225-.584 5.104-.584h5.459zm29.072-10.817h4.265v26.889c0 2.421-.49 4.486-1.472 6.195-.949 1.679-2.383 3.033-4.113 3.885-1.744.897-3.758 1.346-6.043 1.346-.948 0-2.066-.153-3.352-.457-1.27-.288-2.522-.787-3.758-1.498a9.39 9.39 0 0 1-3.072-2.819l2.463-2.793c1.151 1.388 2.353 2.353 3.605 2.895 1.27.542 2.522.812 3.758.812 1.49 0 2.776-.279 3.859-.837a5.84 5.84 0 0 0 2.514-2.489c.61-1.083.914-2.42.914-4.011V152.57l.432-6.043zm-18.916 14.041v-.533c0-2.099.245-4.003.736-5.713.508-1.726 1.227-3.207 2.158-4.443.948-1.236 2.091-2.184 3.428-2.844 1.337-.677 2.844-1.015 4.52-1.015 1.726 0 3.233.304 4.519.914a8.69 8.69 0 0 1 3.301 2.615c.914 1.134 1.633 2.505 2.158 4.113s.889 3.428 1.092 5.459v2.336c-.186 2.014-.55 3.826-1.092 5.434-.525 1.608-1.244 2.979-2.158 4.113-.879 1.12-2.01 2.016-3.301 2.615-1.303.593-2.827.889-4.57.889-1.642 0-3.132-.347-4.469-1.041-1.32-.694-2.454-1.668-3.402-2.92s-1.676-2.725-2.184-4.418c-.491-1.71-.736-3.563-.736-5.561zm4.697-.533v.533c0 1.371.136 2.658.406 3.86.288 1.202.72 2.26 1.295 3.174.569.891 1.344 1.631 2.26 2.158.914.508 2.006.761 3.275.761 1.558 0 2.844-.33 3.86-.99s1.84-1.555 2.412-2.615a15.14 15.14 0 0 0 1.422-3.529v-6.119c-.185-.927-.475-1.83-.864-2.692a8.3 8.3 0 0 0-1.472-2.336c-.607-.705-1.361-1.268-2.209-1.65-.88-.406-1.913-.61-3.098-.61-1.286 0-2.395.271-3.326.813a6.49 6.49 0 0 0-2.26 2.184c-.575.914-1.007 1.98-1.295 3.199-.277 1.267-.414 2.562-.406 3.859zm37.02 14.473c-1.913 0-3.648-.322-5.205-.965a11.79 11.79 0 0 1-3.987-2.768c-1.1-1.185-1.946-2.589-2.539-4.214s-.889-3.403-.889-5.332v-1.067c0-2.234.331-4.223.991-5.967.66-1.76 1.557-3.25 2.691-4.468s2.421-2.142 3.86-2.768c1.408-.62 2.93-.939 4.468-.939 1.964 0 3.656.338 5.078 1.015 1.439.677 2.616 1.625 3.53 2.844.914 1.202 1.591 2.624 2.031 4.266.44 1.625.66 3.402.66 5.332v2.107h-20.516v-3.834h15.819v-.355c-.068-1.217-.325-2.417-.762-3.555-.4-1.118-1.103-2.103-2.031-2.844s-2.201-1.117-3.809-1.117c-1.066 0-2.048.228-2.945.685-.897.441-1.667 1.101-2.311 1.981s-1.142 1.955-1.498 3.225-.533 2.733-.533 4.392v1.067c0 1.303.178 2.53.533 3.681.373 1.134.906 2.133 1.6 2.996a7.67 7.67 0 0 0 2.564 2.032c1.016.49 2.167.736 3.454.736 1.658 0 3.063-.339 4.214-1.016s2.159-1.582 3.022-2.717l2.844 2.26c-.593.897-1.346 1.752-2.26 2.565s-2.04 1.472-3.377 1.98c-1.32.508-2.886.762-4.697.762z" fill="#b3d3e9"/></g><defs><clipPath id="A"><path fill="#fff" d="M0 0h1095v314H0z"/></clipPath></defs></svg>