<svg xmlns="http://www.w3.org/2000/svg" xmlns:xlink="http://www.w3.org/1999/xlink" width="200" height="200" fill="none" xmlns:v="https://vecta.io/nano"><g clip-path="url(#A)"><path d="M200 0H0V200H200V0Z" fill="#1a558d"/><g fill="#b3d3e9"><path d="M66.234 106.145V108H54.601v-1.624l5.823-6.482 1.66-2.026c.399-.562.675-1.062.83-1.502.163-.448.244-.903.244-1.367 0-.586-.122-1.115-.366-1.587-.236-.48-.586-.863-1.05-1.147s-1.025-.427-1.685-.427c-.789 0-1.448.155-1.977.464-.521.301-.911.724-1.172 1.269s-.391 1.172-.391 1.88h-2.258c0-1.001.22-1.916.659-2.747s1.09-1.489 1.953-1.978c.863-.496 1.925-.745 3.186-.745 1.123 0 2.083.199 2.881.598.797.391 1.408.944 1.831 1.66.431.708.647 1.538.647 2.49a5 5 0 0 1-.269 1.587c-.171.529-.411 1.058-.72 1.587-.301.529-.655 1.05-1.062 1.563l-1.282 1.514-4.761 5.164h8.911z"/><use xlink:href="#B"/><path d="M93.871 97.697v2.71c0 1.457-.13 2.686-.391 3.687s-.635 1.806-1.123 2.417a4.27 4.27 0 0 1-1.77 1.33c-.684.269-1.457.403-2.319.403-.684 0-1.314-.085-1.892-.256a4.5 4.5 0 0 1-1.562-.818c-.456-.383-.846-.879-1.172-1.489s-.574-1.351-.745-2.222-.256-1.888-.256-3.052v-2.71c0-1.457.13-2.677.391-3.662.269-.985.647-1.774 1.135-2.368.488-.602 1.074-1.034 1.758-1.294.692-.26 1.465-.391 2.319-.391.692 0 1.326.085 1.904.256.586.163 1.107.427 1.563.793.456.358.842.838 1.16 1.441.325.594.574 1.322.745 2.185s.256 1.876.256 3.04zm-2.27 3.076v-3.454c0-.797-.049-1.497-.147-2.1-.09-.61-.224-1.131-.403-1.562s-.407-.781-.684-1.05a2.41 2.41 0 0 0-.94-.586c-.35-.13-.745-.195-1.184-.195-.537 0-1.013.102-1.428.305-.415.195-.765.509-1.05.94-.277.431-.488.997-.635 1.697s-.22 1.55-.22 2.551v3.454c0 .798.045 1.502.134 2.112.098.611.24 1.14.427 1.587.187.44.415.802.684 1.087a2.56 2.56 0 0 0 .928.634c.358.131.753.196 1.184.196.553 0 1.038-.106 1.453-.318s.761-.541 1.038-.988c.285-.456.496-1.038.635-1.746.138-.716.207-1.571.207-2.564zm6.945-5.981l2.893 4.81 2.93-4.81h2.649l-4.322 6.519 4.456 6.689h-2.612l-3.052-4.956L98.436 108h-2.625l4.444-6.689-4.309-6.519h2.6zm22.278 11.353V108H109.19v-1.624l5.823-6.482 1.66-2.026c.399-.562.676-1.062.83-1.502a3.97 3.97 0 0 0 .245-1.367c0-.586-.123-1.115-.367-1.587a2.75 2.75 0 0 0-1.049-1.147c-.464-.285-1.026-.427-1.685-.427-.789 0-1.449.155-1.978.464-.52.301-.911.724-1.171 1.269s-.391 1.172-.391 1.88h-2.258c0-1.001.219-1.916.659-2.747s1.09-1.489 1.953-1.978c.863-.496 1.925-.745 3.186-.745 1.123 0 2.083.199 2.881.598.797.391 1.408.944 1.831 1.66.431.708.647 1.538.647 2.49a5 5 0 0 1-.269 1.587c-.171.529-.411 1.058-.72 1.587a12.3 12.3 0 0 1-1.062 1.563l-1.282 1.514-4.76 5.164h8.911zm13.574-8.448v2.71c0 1.457-.13 2.686-.391 3.687s-.634 1.806-1.123 2.417-1.078 1.054-1.77 1.33c-.683.269-1.456.403-2.319.403-.684 0-1.314-.085-1.892-.256a4.5 4.5 0 0 1-1.563-.818c-.455-.383-.846-.879-1.172-1.489s-.573-1.351-.744-2.222-.257-1.888-.257-3.052v-2.71c0-1.457.131-2.677.391-3.662.269-.985.647-1.774 1.135-2.368a4.14 4.14 0 0 1 1.758-1.294c.692-.26 1.465-.391 2.32-.391.691 0 1.326.085 1.904.256a4.3 4.3 0 0 1 1.562.793c.456.358.843.838 1.16 1.441.325.594.574 1.322.745 2.185s.256 1.876.256 3.04zm-2.271 3.076v-3.454c0-.797-.048-1.497-.146-2.1-.09-.61-.224-1.131-.403-1.562s-.407-.781-.683-1.05a2.42 2.42 0 0 0-.94-.586c-.35-.13-.745-.195-1.184-.195-.538 0-1.014.102-1.429.305-.415.195-.765.509-1.05.94-.276.431-.488.997-.634 1.697s-.22 1.55-.22 2.551v3.454c0 .798.045 1.502.134 2.112.098.611.24 1.14.428 1.587.187.44.415.802.683 1.087s.578.496.928.634c.358.131.753.196 1.184.196.553 0 1.038-.106 1.453-.318s.76-.541 1.037-.988c.285-.456.497-1.038.635-1.746.138-.716.207-1.571.207-2.564zm16.333-3.076v2.71c0 1.457-.13 2.686-.39 3.687s-.635 1.806-1.123 2.417-1.079 1.054-1.77 1.33c-.684.269-1.457.403-2.32.403-.683 0-1.314-.085-1.892-.256s-1.098-.444-1.562-.818c-.456-.383-.847-.879-1.172-1.489s-.574-1.351-.745-2.222-.256-1.888-.256-3.052v-2.71c0-1.457.13-2.677.391-3.662.268-.985.647-1.774 1.135-2.368a4.13 4.13 0 0 1 1.758-1.294c.691-.26 1.465-.391 2.319-.391.692 0 1.327.085 1.904.256.586.163 1.107.427 1.563.793.456.358.842.838 1.159 1.441.326.594.574 1.322.745 2.185s.256 1.876.256 3.04zm-2.27 3.076v-3.454c0-.797-.049-1.497-.147-2.1-.089-.61-.223-1.131-.402-1.562s-.407-.781-.684-1.05a2.42 2.42 0 0 0-.94-.586c-.35-.13-.745-.195-1.184-.195-.537 0-1.013.102-1.428.305-.415.195-.765.509-1.05.94-.277.431-.488.997-.635 1.697s-.22 1.55-.22 2.551v3.454c0 .798.045 1.502.135 2.112.097.611.24 1.14.427 1.587.187.44.415.802.684 1.087a2.55 2.55 0 0 0 .927.634c.358.131.753.196 1.184.196.554 0 1.038-.106 1.453-.318s.761-.541 1.038-.988c.284-.456.496-1.038.634-1.746.139-.716.208-1.571.208-2.564z"/></g></g><defs><clipPath id="A"><path fill="#fff" d="M0 0h200v200H0z"/></clipPath><path id="B" d="M79.808 97.697v2.71c0 1.457-.13 2.686-.391 3.687s-.635 1.806-1.123 2.417a4.27 4.27 0 0 1-1.77 1.33c-.684.269-1.457.403-2.319.403-.684 0-1.314-.085-1.892-.256a4.5 4.5 0 0 1-1.562-.818c-.456-.383-.846-.879-1.172-1.489s-.574-1.351-.745-2.222-.256-1.888-.256-3.052v-2.71c0-1.457.13-2.677.391-3.662.269-.985.647-1.774 1.135-2.368.488-.602 1.074-1.034 1.758-1.294.692-.26 1.465-.391 2.319-.391.692 0 1.326.085 1.904.256.586.163 1.107.427 1.563.793.456.358.842.838 1.16 1.441.325.594.574 1.322.745 2.185s.256 1.876.256 3.04zm-2.27 3.076v-3.454c0-.797-.049-1.497-.147-2.1-.09-.61-.224-1.131-.403-1.562s-.407-.781-.684-1.05c-.269-.269-.582-.464-.94-.586-.35-.13-.745-.195-1.184-.195-.537 0-1.013.102-1.428.305-.415.195-.765.509-1.05.94-.277.431-.488.997-.635 1.697s-.22 1.55-.22 2.551v3.454c0 .798.045 1.502.134 2.112.098.611.24 1.14.427 1.587.187.44.415.802.684 1.087a2.56 2.56 0 0 0 .928.634c.358.131.753.196 1.184.196.553 0 1.038-.106 1.453-.318s.761-.541 1.038-.988c.285-.456.496-1.038.635-1.746.138-.716.207-1.571.207-2.564z"/></defs></svg>