<svg xmlns="http://www.w3.org/2000/svg" width="25" height="13" xmlns:v="https://vecta.io/nano"><path d="M1.469 2.164V.547H.063v1.617h1.406zm0 9.836V3.703H.063V12h1.406zm7.336.195a5.69 5.69 0 0 0 2.781-.707c.859-.471 1.523-1.165 1.992-2.082s.703-1.956.703-3.117c0-1.146-.223-2.171-.668-3.074s-1.092-1.608-1.941-2.113S9.87.344 8.813.344c-1.615 0-2.932.538-3.953 1.613S3.328 4.521 3.328 6.422c0 1.005.219 1.958.656 2.859s1.081 1.612 1.93 2.133 1.813.781 2.891.781zm-.008-1.297c-1.12 0-2.051-.397-2.793-1.191S4.891 7.826 4.891 6.445c0-1.724.387-2.954 1.16-3.691s1.697-1.105 2.77-1.105c.755 0 1.436.191 2.043.574s1.068.922 1.383 1.617.473 1.509.473 2.441c0 1.474-.368 2.612-1.105 3.414s-1.676 1.203-2.816 1.203zm11.805 1.297c.818 0 1.553-.15 2.207-.449s1.155-.719 1.504-1.258.523-1.113.523-1.723c0-.615-.159-1.158-.477-1.629s-.81-.861-1.477-1.168c-.458-.208-1.303-.452-2.535-.73s-1.993-.551-2.285-.816a1.3 1.3 0 0 1-.445-1.016c0-.474.21-.879.629-1.215s1.087-.504 2.004-.504c.88 0 1.546.185 1.996.555s.715.917.793 1.641h0l1.453-.109c-.026-.672-.214-1.273-.562-1.805s-.848-.934-1.496-1.207-1.397-.41-2.246-.41c-.771 0-1.471.13-2.102.391s-1.109.642-1.437 1.145a2.91 2.91 0 0 0-.492 1.621c0 .526.134 1.001.402 1.426s.676.78 1.223 1.066c.422.224 1.159.462 2.211.715l2.039.559c.479.182.823.408 1.031.676a1.49 1.49 0 0 1 .313.941 1.64 1.64 0 0 1-.324.98c-.216.299-.546.535-.988.707s-.953.258-1.531.258c-.651 0-1.237-.113-1.758-.34s-.905-.523-1.152-.891-.405-.837-.473-1.41h0l-1.43.125c.021.766.23 1.452.629 2.059s.948 1.061 1.648 1.363 1.569.453 2.605.453z" fill="#e26cf5"/></svg>