<svg xmlns="http://www.w3.org/2000/svg" width="18" height="21" xmlns:v="https://vecta.io/nano"><path d="M8.77.41c-2.144 0-3.232 1.472-3.232 4.375v2.188a1.15 1.15 0 0 1-.128.51 4.965 4.965 0 0 1-.272.38c-.642.851-2.06 3.203-2.324 5.76a1.67 1.67 0 0 1 .325-.033c.283 0 1.03 0 2.22 1.86l.51.76.46.72.012.016.012.02c.125.21.255.377.38.536l.219.287c.283-.108.571-.268.743-.5.225-.356.2-.779-.067-1.158-.11-.159-.314-.272-.8-.537l-.82-.488c-.388-.315-.931-1-.931-1.543 0-1.163.82-2.935 1.478-3.986.377-.6.664-1.063.777-1.458a.933.933 0 0 0 .238.117l.017.005.018.005c.32.08.643.066.852.066.435 0 .749-.198 1.04-.364l.612-.333c.209.375.48.721.76 1.082.772.984 1.699 2.64 1.973 5.1a1.86 1.86 0 0 1 1.004-.235l.029.002.117-.005a3.867 3.867 0 0 1 1.199.191c.36.101.658.28.867.51.188.001.368.042.534.12l.023-.818c0-1.444-.998-3.436-1.75-4.458l-.45-.6c-.664-.873-1.19-1.564-1.492-2.753-.198-.773-.225-1.012-.252-1.243s-.054-.475-.218-1.128c-.3-1.322-.67-2.97-3.684-2.97zM7.384 3.035c.51 0 .923.88.923 1.607 0 .044-.006.114-.01.177l-.104-.006a1.53 1.53 0 0 0-.371.047c-.056-.278-.226-.485-.438-.485-.255 0-.462.294-.462.656a.87.87 0 0 0 .036.25l-.276.217-.043.036a1.56 1.56 0 0 1-.088-.216l-.09-.676c0-.727.412-1.607.923-1.607zm2.307 0c.51 0 .923.88.923 1.607 0 .27-.06.587-.16.839a2.627 2.627 0 0 0-.373-.12.834.834 0 0 0 .072-.33c0-.362-.207-.656-.462-.656s-.461.294-.461.656v.005a3.746 3.746 0 0 0-.447-.143 3.723 3.723 0 0 1-.015-.251c0-.727.413-1.607.923-1.607zM8.194 5.687c.188 0 .46.07.709.166l.636.272.036.015.038.007c.234.053.445.11.532.152-.024.188-.047.29-.058.306s-.077.077-.314.197c-.292.099-.513.26-.751.396-.262.149-.527.24-.565.24-.202 0-.481-.014-.593-.036.043.012-.032-.024-.128-.108a8.973 8.973 0 0 1-.36-.35L7.34 6.91l-.036-.024a1.865 1.865 0 0 1-.319-.251c-.058-.065-.063-.084-.063-.126 0-.065-.013-.026.029-.07s.168-.14.339-.284l.016-.012.015-.016c-.026.026.142-.13.324-.242s.407-.199.548-.199zm5.798 8.749c-.43 0-.73.121-.811.219.187.205.303.403.422.762.128.266.449.333.705.333.782 0 .934-.446 1.18-.697 0 0-.064-.069-.064-.135-.065-.134-.256-.267-.512-.334a2.74 2.74 0 0 0-.642-.133 2.252 2.252 0 0 0-.278-.015zm-10.853.029c-.321 0-.48.15-.694.354s-.442.516-.817.769c-.33.406-1.316.015-1.6.627-.156.335.383.776.383 1.533 0 .304-.269.506-.32.709-.055.251-.109.403 0 .605.212.303.48.405 2.3.757.962.203 1.873.71 2.46.759s1.605 0 1.605-1.364c.054-.808-.427-1.01-.909-1.818l-.962-1.467c-.321-.505-1.017-1.464-1.446-1.464zm9.43.873c-.107.205-.107.36-.107.877l-.055 1.24c-.11.879-.407 1.274-.407 1.79 0 .569.164.931.382 1.087.162.155.437.258 1.037.258s.98-.207 1.363-.568c.272-.26.49-.362 1.255-.88l1.689-.98c.11-.105.274-.158.274-.469 0-.258-.218-.36-.382-.412-.218-.104-.599-.26-.927-.724-.142-.224-.12-.8-.292-1.15l-.236.24c-.027.028-.05.064-.078.096-.223.287-.688.882-1.777.882-.714 0-1.291-.316-1.545-.848l-.024-.048-.018-.052a1.35 1.35 0 0 0-.151-.339zm-1.26 2.796c-.44.359-1.112.706-2.078.706-.983 0-1.646-.344-2.068-.696.146.29.243.636.216 1.097 0 .166-.016.323-.041.474h3.777a3.253 3.253 0 0 1-.038-.47c0-.386.1-.7.2-1.005l.032-.106z" fill="#ff9d39"/></svg>