<svg xmlns="http://www.w3.org/2000/svg" height="22" width="19" xmlns:v="https://vecta.io/nano"><path d="M18.775 16.141c-.512 1.146-.759 1.657-1.417 2.668-.922 1.412-2.223 3.176-3.83 3.187-1.43.013-1.8-.94-3.742-.923-1.941.01-2.346.942-3.778.927-1.609-.015-2.839-1.603-3.761-3.013C-.333 15.032-.605 10.395.989 7.929 2.117 6.18 3.9 5.153 5.576 5.153c1.707 0 2.78.943 4.19.943 1.369 0 2.202-.945 4.176-.945 1.492 0 3.069.818 4.197 2.23-3.689 2.037-3.09 7.34.636 8.76zM12.443 3.572c.718-.928 1.263-2.238 1.065-3.572-1.171.08-2.54.833-3.34 1.808-.726.89-1.327 2.209-1.093 3.485 1.278.04 2.601-.727 3.368-1.721z" fill="#58e686"/></svg>