<svg xmlns="http://www.w3.org/2000/svg" width="199" height="199" fill-rule="evenodd" xmlns:v="https://vecta.io/nano"><path fill="#f23d53" d="M0 0h199v199H0z"/><path d="M66.065 92.539l-16.578-9.824-16.521 9.92 4.22-18.803-14.54-12.647 19.186-1.797 7.535-17.736 7.638 17.692 19.197 1.685L61.736 73.76zm46.494-60.427l-7.84 2.65-1.393 8.158-4.943-6.638-8.189 1.196 4.785-6.752-3.668-7.419 7.9 2.465 5.922-5.781.097 8.275zm15.869 33.64l-7.964-2.25-5.764 5.939-.321-8.27-7.429-3.646 7.766-2.861 1.172-8.192 5.121 6.502 8.154-1.417-4.601 6.879zm-25.432 60.321L98.24 119.3l-8.219.967 4.972-6.616-3.459-7.518 7.829 2.684 6.081-5.613-.133 8.275 7.218 4.049-7.911 2.43zm23.097-26.363l-7.09-4.268-7.125 4.211 1.868-8.062-6.206-5.475 8.245-.714 3.289-7.594 3.227 7.621 8.239.781-6.25 5.424z" fill="#ffde00" fill-rule="nonzero"/></svg>