<svg xmlns="http://www.w3.org/2000/svg" width="199" height="199" fill="none" xmlns:v="https://vecta.io/nano"><path fill="#fff" d="M0 0h199v199H0z"/><mask id="A" maskUnits="userSpaceOnUse" x="0" y="0" width="199" height="199"><path fill="#fff" d="M0 0h199v199H0z"/></mask><g mask="url(#A)"><path fill-rule="evenodd" d="M199 0H0v13.267h199V0zm0 26.533H0V39.8h199V26.533zM0 53.067h199v13.267H0V53.067zM199 79.6H0v13.267h199V79.6zM0 106.133h199V119.4H0v-13.267zm199 26.534H0v13.266h199v-13.266zM0 159.2h199v13.267H0V159.2zm199 26.533H0V199h199v-13.267z" fill="#d02f44"/><path fill="#46467f" d="M0 0h93v93H0z"/><g filter="url(#B)"><path fill-rule="evenodd" d="M19.9 26.533c3.664 0 6.633-2.97 6.633-6.633s-2.97-6.633-6.633-6.633-6.633 2.97-6.633 6.633 2.97 6.633 6.633 6.633zm26.533 0c3.663 0 6.633-2.97 6.633-6.633s-2.97-6.633-6.633-6.633S39.8 16.236 39.8 19.9s2.97 6.633 6.633 6.633zM79.6 19.9c0 3.664-2.97 6.633-6.633 6.633s-6.633-2.97-6.633-6.633 2.97-6.633 6.633-6.633S79.6 16.236 79.6 19.9zM33.167 39.8c3.663 0 6.633-2.97 6.633-6.633s-2.97-6.633-6.633-6.633-6.633 2.97-6.633 6.633 2.97 6.633 6.633 6.633zm33.167-6.633c0 3.663-2.97 6.633-6.633 6.633s-6.633-2.97-6.633-6.633 2.97-6.633 6.633-6.633 6.633 2.97 6.633 6.633zm6.633 19.9c3.663 0 6.633-2.97 6.633-6.633S76.63 39.8 72.967 39.8s-6.633 2.97-6.633 6.633 2.97 6.633 6.633 6.633zm-19.9-6.633c0 3.663-2.97 6.633-6.633 6.633s-6.633-2.97-6.633-6.633 2.97-6.633 6.633-6.633 6.633 2.97 6.633 6.633zM19.9 53.066c3.664 0 6.633-2.97 6.633-6.633S23.563 39.8 19.9 39.8s-6.633 2.97-6.633 6.633 2.97 6.633 6.633 6.633zM39.8 59.7c0 3.663-2.97 6.633-6.633 6.633s-6.633-2.97-6.633-6.633 2.97-6.633 6.633-6.633S39.8 56.036 39.8 59.7zm19.9 6.633c3.663 0 6.633-2.97 6.633-6.633s-2.97-6.633-6.633-6.633-6.633 2.97-6.633 6.633 2.97 6.633 6.633 6.633zm19.9 6.633c0 3.663-2.97 6.633-6.633 6.633s-6.633-2.97-6.633-6.633 2.97-6.633 6.633-6.633 6.633 2.97 6.633 6.633zM46.433 79.6c3.663 0 6.633-2.97 6.633-6.633s-2.97-6.633-6.633-6.633-6.633 2.97-6.633 6.633 2.97 6.633 6.633 6.633zm-19.9-6.633c0 3.663-2.97 6.633-6.633 6.633s-6.633-2.97-6.633-6.633 2.97-6.633 6.633-6.633 6.633 2.97 6.633 6.633z" fill="url(#C)"/></g></g><defs><filter id="B" x="13.267" y="13.266" width="66.333" height="67.334" filterUnits="userSpaceOnUse" color-interpolation-filters="sRGB"><feFlood flood-opacity="0" result="A"/><feColorMatrix in="SourceAlpha" values="0 0 0 0 0 0 0 0 0 0 0 0 0 0 0 0 0 0 127 0"/><feOffset dy="1"/><feColorMatrix values="0 0 0 0 0 0 0 0 0 0 0 0 0 0 0 0 0 0 0.06 0"/><feBlend in2="A"/><feBlend in="SourceGraphic"/></filter><linearGradient id="C" x1="13.267" y1="13.266" x2="13.267" y2="79.6" gradientUnits="userSpaceOnUse"><stop stop-color="#fff"/><stop offset="1" stop-color="#f0f0f0"/></linearGradient></defs></svg>