<svg width="40" height="40" viewBox="0 0 40 40" fill="none" xmlns="http://www.w3.org/2000/svg">
<path d="M0.887912 14.4669C-2.84409 5.87492 5.87591 -2.84508 14.4679 0.886921L15.8879 1.50392C17.1857 2.0676 18.5855 2.35846 20.0004 2.35846C21.4153 2.35846 22.8151 2.0676 24.1129 1.50392L25.5329 0.886921C34.1259 -2.84508 42.8459 5.87492 39.1139 14.4669L38.4969 15.8869C37.9332 17.1847 37.6424 18.5845 37.6424 19.9994C37.6424 21.4143 37.9332 22.8141 38.4969 24.1119L39.1139 25.5319C42.8459 34.1249 34.1249 42.8449 25.5339 39.1129L24.1139 38.4959C22.8161 37.9322 21.4163 37.6414 20.0014 37.6414C18.5865 37.6414 17.1867 37.9322 15.8889 38.4959L14.4689 39.1129C5.87491 42.8449 -2.84509 34.1249 0.886912 25.5329L1.50391 24.1129C2.06759 22.8151 2.35846 21.4153 2.35846 20.0004C2.35846 18.5855 2.06759 17.1857 1.50391 15.8879L0.886912 14.4679L0.887912 14.4669Z" fill="black"/>
</svg>
