<svg xmlns="http://www.w3.org/2000/svg" xmlns:xlink="http://www.w3.org/1999/xlink" width="123" height="18" fill="none" xmlns:v="https://vecta.io/nano"><path d="M36.102 13.373V15.5h-5.317v-2.127h5.317zm-4.526-10.67V15.5H29V2.703h2.575z" fill="url(#A)"/><path d="M40.074 5.99v9.51h-2.47V5.99h2.47zM37.49 3.529a1.29 1.29 0 0 1 .36-.94c.246-.252.574-.378.984-.378.416 0 .744.126.984.378.24.246.36.56.36.94 0 .375-.123.688-.369.94-.24.246-.562.369-.967.369-.416 0-.747-.123-.993-.369a1.31 1.31 0 0 1-.36-.94z" fill="url(#A)"/><path d="M44.442 8.021V15.5h-2.47V5.99h2.311l.158 2.03zm-.369 2.399l-.659.018c-.012-.715.056-1.356.202-1.925.152-.568.366-1.052.642-1.45.281-.404.615-.712 1.002-.923.393-.217.829-.325 1.31-.325a2.57 2.57 0 0 1 1.011.193 1.98 1.98 0 0 1 .8.615c.223.281.395.656.519 1.125.123.463.185 1.031.185 1.705V15.5h-2.47V9.436c0-.41-.041-.727-.123-.949-.082-.229-.205-.387-.369-.475-.164-.094-.369-.141-.615-.141a1.02 1.02 0 0 0-.624.202c-.182.129-.334.308-.457.536a3.19 3.19 0 0 0-.272.809 4.96 4.96 0 0 0-.079 1.002z" fill="url(#A)"/><path d="M54.717 15.676c-.65 0-1.227-.1-1.731-.299-.498-.199-.92-.486-1.266-.861-.346-.381-.609-.841-.791-1.38s-.272-1.154-.272-1.846v-.782c0-.773.088-1.45.264-2.03.176-.586.425-1.078.747-1.477s.718-.694 1.186-.888c.475-.199 1.011-.299 1.608-.299s1.122.1 1.573.299c.457.193.835.486 1.134.879.299.387.524.867.677 1.441s.228 1.242.228 2.004v1.125h-6.372V9.831h3.955v-.22c0-.387-.041-.709-.123-.967-.082-.264-.211-.46-.387-.589s-.41-.193-.703-.193c-.246 0-.454.05-.624.149s-.305.255-.404.466-.173.486-.22.826a8.82 8.82 0 0 0-.07 1.204v.782c0 .44.038.809.114 1.108.076.293.188.533.334.721.152.182.337.313.554.396a2.28 2.28 0 0 0 .756.114c.434 0 .823-.076 1.169-.229.352-.158.65-.372.896-.642l.984 1.494a3.53 3.53 0 0 1-.703.668c-.299.223-.656.404-1.072.545s-.897.211-1.441.211z" fill="url(#A)"/><path d="M63.69 13.312V8.917c0-.287-.035-.516-.105-.686-.065-.17-.164-.293-.299-.369-.129-.082-.287-.123-.475-.123-.211 0-.387.044-.527.132s-.246.214-.316.378a1.61 1.61 0 0 0-.097.589h-2.47c0-.41.079-.797.237-1.16a2.75 2.75 0 0 1 .694-.967c.311-.281.68-.501 1.107-.659s.908-.237 1.441-.237c.633 0 1.195.108 1.688.325a2.51 2.51 0 0 1 1.169 1.011c.287.463.431 1.063.431 1.802v4.236c0 .533.026.967.079 1.301.059.334.144.621.255.861v.149h-2.478c-.111-.264-.196-.592-.255-.984a9.17 9.17 0 0 1-.079-1.204zm.299-3.621l.009 1.477h-.905c-.234 0-.439.038-.615.114-.17.076-.313.185-.431.325a1.34 1.34 0 0 0-.264.475 2.07 2.07 0 0 0-.079.58c0 .229.032.422.097.58s.161.278.29.36.281.123.457.123c.27 0 .504-.056.703-.167s.346-.246.439-.404c.1-.158.132-.305.097-.439l.562.958a4.35 4.35 0 0 1-.29.677 2.86 2.86 0 0 1-.448.65 2.17 2.17 0 0 1-.677.492c-.264.123-.577.185-.941.185-.51 0-.976-.117-1.397-.352s-.756-.562-1.002-.984c-.24-.422-.36-.923-.36-1.503 0-.48.076-.914.228-1.301.158-.393.393-.724.703-.993.311-.275.703-.486 1.178-.633s1.031-.22 1.67-.22h.976z" fill="url(#A)"/><path d="M70.449 8.108V15.5h-2.461V5.99h2.32l.141 2.118zM72.69 5.92l-.035 2.452c-.111-.023-.246-.041-.404-.053l-.404-.018c-.275 0-.51.044-.703.132a1.17 1.17 0 0 0-.483.378c-.123.164-.217.369-.281.615s-.103.524-.114.835l-.466-.176c0-.621.047-1.189.141-1.705.1-.521.246-.973.439-1.354.193-.387.425-.686.694-.896a1.49 1.49 0 0 1 .932-.316c.117 0 .24.012.369.035a1.43 1.43 0 0 1 .316.07z" fill="url(#A)"/><path d="M82.851 4.988L80.1 15.5h-2.716l3.999-12.797h1.696l-.228 2.285zM85.022 15.5L82.253 4.988l-.255-2.285h1.723L87.755 15.5h-2.733zm.097-4.773v2.136h-5.774v-2.136h5.774z" fill="url(#A)"/><path d="M93.459 13.399V2h2.47v13.5l-2.232.009-.237-2.109zm-4.931-2.32v-.633c0-.773.064-1.45.193-2.03.135-.58.334-1.063.598-1.45s.586-.674.967-.861c.387-.193.829-.29 1.327-.29.451 0 .847.114 1.187.343a2.78 2.78 0 0 1 .879.94c.24.404.434.882.58 1.433s.249 1.154.308 1.811v.914c-.07.621-.179 1.201-.325 1.74-.141.539-.334 1.008-.58 1.406-.24.398-.53.712-.87.94-.34.223-.735.334-1.186.334-.498 0-.94-.1-1.327-.299-.381-.199-.703-.492-.967-.879-.258-.393-.454-.873-.589-1.441-.129-.574-.193-1.233-.193-1.977zm2.461-.633v.633a9.28 9.28 0 0 0 .061 1.151c.047.316.12.577.22.782.106.199.243.349.413.448.17.094.381.141.633.141.328 0 .595-.082.8-.246.205-.17.357-.401.457-.694.105-.299.164-.642.176-1.028V9.972c-.012-.322-.05-.612-.114-.87s-.155-.478-.272-.659a1.26 1.26 0 0 0-.439-.422 1.16 1.16 0 0 0-.598-.149c-.246 0-.457.05-.633.149-.17.1-.305.255-.404.466-.1.205-.176.472-.228.8-.047.322-.07.709-.07 1.16z" fill="url(#A)"/><path d="M100.262 7.959V15.5h-2.47V5.99h2.32l.15 1.969zm-.352 2.461l-.677.018c-.012-.668.047-1.283.176-1.846s.322-1.052.58-1.468c.264-.416.595-.738.994-.967s.864-.343 1.397-.343a2.35 2.35 0 0 1 .958.193c.293.123.548.319.765.589.216.264.383.609.501 1.037.117.422.175.929.175 1.521V15.5h-2.461V9.453c0-.422-.041-.744-.123-.967-.082-.229-.199-.387-.351-.475-.152-.094-.34-.141-.563-.141-.234 0-.439.064-.615.193a1.41 1.41 0 0 0-.431.545c-.105.229-.187.498-.246.809-.052.311-.079.645-.079 1.002zm4.632-.246l-.888.114c-.011-.627.044-1.21.167-1.749.123-.545.314-1.02.572-1.424.258-.41.58-.729.966-.958.393-.229.847-.343 1.363-.343.387 0 .738.064 1.054.193s.586.337.809.624c.229.281.401.653.519 1.116.123.463.184 1.025.184 1.687V15.5h-2.47V9.444c0-.428-.041-.756-.123-.984s-.199-.384-.351-.466-.334-.123-.545-.123-.396.059-.554.176c-.152.117-.281.281-.386.492-.106.205-.185.448-.238.729a4.8 4.8 0 0 0-.079.905z" fill="url(#A)"/><path d="M113.727 5.99v9.51h-2.47V5.99h2.47zm-2.584-2.461c0-.381.12-.694.36-.94.246-.252.574-.378.984-.378.416 0 .745.126.985.378.24.246.36.56.36.94 0 .375-.123.688-.369.94-.24.246-.562.369-.967.369-.416 0-.747-.123-.993-.369a1.31 1.31 0 0 1-.36-.94z" fill="url(#A)"/><path d="M118.095 8.021V15.5h-2.47V5.99h2.312l.158 2.03zm-.369 2.399l-.659.018c-.012-.715.055-1.356.202-1.925s.366-1.052.641-1.45c.282-.404.615-.712 1.002-.923.393-.217.829-.325 1.31-.325.369 0 .706.064 1.011.193s.577.334.799.615.396.656.519 1.125c.123.463.184 1.031.184 1.705V15.5h-2.469V9.436c0-.41-.041-.727-.123-.949-.082-.229-.205-.387-.369-.475-.165-.094-.37-.141-.616-.141a1.02 1.02 0 0 0-.624.202 1.54 1.54 0 0 0-.457.536 3.18 3.18 0 0 0-.272.809c-.059.311-.085.645-.079 1.002z" fill="url(#A)"/><g fill="#0660b8"><use xlink:href="#C"/><use xlink:href="#C" x="7"/></g><g fill="#22a279"><use xlink:href="#C" x="14"/><use xlink:href="#C" x="14" y="7"/><use xlink:href="#C" x="14" y="14"/><use xlink:href="#C" x="7" y="14"/><use xlink:href="#C" y="14"/></g><use xlink:href="#C" y="7" fill="#0660b8"/><linearGradient id="A" x1="123.963" y1="-1.5" x2="27.963" y2="-1.5" gradientUnits="userSpaceOnUse"><stop offset=".008" stop-color="#22a279"/><stop offset="1" stop-color="#0660b8"/></linearGradient><defs ><path id="C" d="M2 0a2 2 0 1 0 0 4 2 2 0 1 0 0-4z"/></defs></svg>