<svg xmlns="http://www.w3.org/2000/svg" width="153" height="153" xmlns:v="https://vecta.io/nano"><path d="M133.385 1.962a1.962 1.962 0 1 0 0 3.923 1.962 1.962 0 0 0 0-3.923Z" fill="#f1bc19"/><path d="M76.5 3.923C36.417 3.923 3.923 36.417 3.923 76.5s32.494 72.577 72.577 72.577 72.577-32.494 72.577-72.577S116.583 3.923 76.5 3.923Z" fill="#c0e5e4"/><path d="M145.154 0a7.846 7.846 0 1 0 0 15.692 7.846 7.846 0 0 0 0-15.692Z" fill="#f1bc19"/><path d="M3.923 31.385a3.923 3.923 0 1 0 0 7.846 3.923 3.923 0 0 0 0-7.846Z" fill="#00a5a5"/><path d="M135.346 127.5a3.923 3.923 0 1 0 0 7.846 3.923 3.923 0 0 0 0-7.846Zm-105.923-7.846a7.846 7.846 0 1 0 0 15.692 7.846 7.846 0 0 0 0-15.692Z" fill="#fbcd59"/><path d="M31.385 145.154a3.923 3.923 0 1 0 0 7.846 3.923 3.923 0 0 0 0-7.846Z" fill="#00a5a5"/><path d="M93.173 131.423a4.904 4.904 0 1 0 0 9.808 4.904 4.904 0 0 0 0-9.808Zm-69.578-19.615a1.905 1.905 0 1 0 0 3.809 1.905 1.905 0 0 0 0-3.81Z" fill="#fff"/><path d="M145.154 37.27a1.962 1.962 0 1 0 0 3.922 1.962 1.962 0 0 0 0-3.923Z" fill="#f1bc19"/><path d="M131.423 107.885a3.923 3.923 0 1 0 0 7.846 3.923 3.923 0 0 0 0-7.846Zm1.962-64.731a1.962 1.962 0 1 0 0 3.923 1.962 1.962 0 0 0 0-3.923Z" fill="#fff"/><g fill="#fdfcef"><path d="M44.135 101.02h7.846v23.538h-7.846v-23.539Zm56.884 0h7.846v23.538h-7.846v-23.539Z"/><path d="M51.98 114.75v-5.884h49.039v5.884z"/></g><path d="M102 115.73H51v-7.845h51v7.846Zm-49.038-1.96h47.076v-3.924H52.962v3.923Z" fill="#472b29"/><path d="M76.5 24.52c-11.375 0-20.596 9.22-20.596 20.595A20.6 20.6 0 0 0 76.5 65.712a20.6 20.6 0 0 0 20.596-20.597A20.6 20.6 0 0 0 76.5 24.519z" fill="#ee3e54"/><path fill="#fff" d="M87.288 48.057H65.712v-5.885h21.576z"/><path fill="#fdfcef" d="M31.385 65.672h90.23v35.165h-90.23z"/><path d="M51.98 125.538h-7.845a.981.981 0 0 1-.981-.98v-24.52h9.808v24.52a.98.98 0 0 1-.981.98zm-6.865-1.961H51V102h-5.885v21.577zm63.75 1.961h-7.846a.981.981 0 0 1-.98-.98v-24.52h9.807v24.52a.98.98 0 0 1-.98.98zM102 123.577h5.885V102H102v21.577z" fill="#472b29"/><path fill="#fbcd59" d="m74.538 101.02 18.635-35.308H77.481l-18.635 35.307z"/><path d="M59.337 102a.982.982 0 0 1-.867-1.44l18.634-35.307a.982.982 0 0 1 1.736.916l-18.635 35.307a.983.983 0 0 1-.868.524Zm15.692 0a.982.982 0 0 1-.867-1.44l18.634-35.307a.982.982 0 0 1 1.736.916l-18.634 35.307a.983.983 0 0 1-.87.524Z" fill="#472b29"/><path fill="#fbcd59" d="m42.663 101.02 18.635-35.308H45.606L30.404 94.515v6.504z"/><path d="M31.086 95.135a.982.982 0 0 1-.867-1.44l15.01-28.442a.982.982 0 0 1 1.736.916L31.955 94.61a.988.988 0 0 1-.869.524Zm2.26 5.6a.488.488 0 0 1-.432-.72L45.964 75.29a.49.49 0 1 1 .865.459L33.78 100.474a.486.486 0 0 1-.434.26Zm4.904.775a.488.488 0 0 1-.432-.72l15.01-28.443a.492.492 0 0 1 .661-.204.488.488 0 0 1 .204.663l-15.01 28.443a.486.486 0 0 1-.433.26Zm4.904.49a.982.982 0 0 1-.867-1.44L60.92 65.253a.982.982 0 0 1 1.736.916l-18.634 35.307a.983.983 0 0 1-.87.524Z" fill="#472b29"/><path fill="#fbcd59" d="m106.413 101.02 16.048-30.405.135-4.903h-13.24L90.72 101.019z"/><g fill="#472b29"><path d="M91.212 102a.982.982 0 0 1-.867-1.44l18.634-35.307a.982.982 0 0 1 1.736.916L92.08 101.476a.983.983 0 0 1-.868.524zm15.692 0a.982.982 0 0 1-.867-1.44l15.01-28.442a.982.982 0 0 1 1.736.916l-15.01 28.442a.983.983 0 0 1-.87.524zM87.288 49.038H65.712a.981.981 0 0 1-.981-.98v-5.885a.98.98 0 0 1 .98-.98h21.577a.98.98 0 0 1 .981.98v5.885a.98.98 0 0 1-.98.98zm-20.596-1.961h19.616v-3.923H66.692v3.923zM76.5 26.285c10.382 0 18.83 8.448 18.83 18.83S86.882 63.946 76.5 63.946s-18.83-8.448-18.83-18.83 8.448-18.831 18.83-18.831m0-2.747c-11.916 0-21.577 9.661-21.577 21.577A21.58 21.58 0 0 0 76.5 66.692c11.916 0 21.577-9.66 21.577-21.577A21.58 21.58 0 0 0 76.5 23.538z"/><path d="M120.83 67.477v31.777H32.17V67.477h88.66m-91.407-.785v33.346c0 1.083.879 1.962 1.962 1.962h90.23a1.962 1.962 0 0 0 1.962-1.962V66.692a1.962 1.962 0 0 0-1.962-1.961h-90.23a1.962 1.962 0 0 0-1.962 1.961Z"/><path d="M75.221 91.702a.488.488 0 0 1-.432-.72l13.049-24.725a.489.489 0 1 1 .865.459L75.655 91.44a.488.488 0 0 1-.434.26Zm-6.865 2.942a.488.488 0 0 1-.432-.72l15.01-28.442a.49.49 0 0 1 .865.459l-15.01 28.442a.488.488 0 0 1-.433.261Z"/></g></svg>