<svg width="19" height="21" xmlns="http://www.w3.org/2000/svg"><path d="M3.853 5.331C1.425 6.808 0 8.92 0 8.92S.369 4.486 3.853 1.9C5.224.845 7.125 0 9.66 0c.95 0 2.954.159 4.75 1.266 1.793 1.109 2.533 2.006 3.377 3.325.369.582.633 1.32.791 2.006.318 1.32.37 2.957.37 2.957v2.057H5.805s-.054 4.276 5.91 4.276c2.06 0 2.798-.318 3.484-.528 1.056-.317 2.217-1.109 2.217-1.109v4.222s-2.586 1.584-6.28 1.584c-1.056 0-2.111-.106-3.167-.423-.899-.316-2.851-1.056-4.117-2.903a8.348 8.348 0 01-1.214-2.375c-.264-.897-.264-1.793-.264-2.27 0-1.847.633-3.587 1.742-4.855C5.595 5.595 7.39 4.75 7.39 4.75S5.806 6.228 5.806 7.917h7.388s.054-4.223-4.063-4.223c-1.689 0-3.8.739-5.278 1.637z" fill="#1976D2" fill-rule="nonzero"/></svg>